<?xml version="1.0" encoding="utf-8"?>
<!-- Generator: Adobe Illustrator 27.5.0, SVG Export Plug-In . SVG Version: 6.00 Build 0)  -->
<svg version="1.1" id="Capa_1" xmlns="http://www.w3.org/2000/svg" xmlns:xlink="http://www.w3.org/1999/xlink" x="0px" y="0px"
	 viewBox="0 0 84 84" style="enable-background:new 0 0 84 84;" xml:space="preserve">
<style type="text/css">
	.st0{fill:#FFA3FF;}
</style>
<path class="st0" d="M69.8,16.5c-3.1-5.2-7.5-9.2-13.2-11.9C51,1.8,44.2,0.4,36.4,0.4c-5.5,0-11.2,0.8-17.2,2.4
	c-6,1.5-11.1,3.8-15.6,6.8c-1.2,0.8-2.1,1.8-2.6,2.8c-0.5,1-0.8,2.2-0.8,3.7c0,1.3,0.3,2.5,1,3.5C1.9,20.5,2.8,21,3.9,21
	c1,0,1.9-0.3,2.7-0.9c4-2.6,8.5-4.7,13.5-6.3c5.1-1.6,10.1-2.4,15.3-2.4c7.9,0,14.1,2.1,18.4,6.2c4.4,4.2,6.5,10,6.5,17.7
	c0,11.3-2.8,20.4-8.4,27.2c-5.5,6.8-13.9,10.2-25.1,10.2c-2.4,0-4.6-0.1-6.5-0.3c0.7-7.8,1.9-16,3.6-24.6c1.7-8.6,3.3-15.5,5-20.6
	c0.4-1.2,0.6-2.2,0.6-3.1c0-2.2-2-3.3-5.9-3.3c-2.2,0-3.9,0.3-5.3,1s-2.2,1.8-2.7,3.4c-2.4,8.6-4.4,17.6-6,27
	C8,61.4,6.9,69.2,6.5,75.5c-0.1,2.3,0.3,4,1.2,5c1,1,2.7,1.7,5.3,2c4.7,0.6,8.9,1,12.6,1c10.2,0,18.9-2,26.3-6
	c7.4-4,13-9.5,16.8-16.7c3.8-7.2,5.8-15.7,5.8-25.3C74.4,28.1,72.9,21.7,69.8,16.5z"/>
</svg>
